# xmcd CD database file
#
# Track frame offsets:
#	150
#	21265
#	39720
#	57012
#	78110
#
# Disc length: 1172 seconds
#
# Revision: 4
# Processed by: cddbd v1.5PL3 Copyright (c) Steve Scherf et al.
# Submitted via: CDex 1.50
#
DISCID=32049205
DTITLE=伊藤真澄 - 今日の花
DYEAR=2001
DGENRE=Anime
TTITLE0=今日の花
TTITLE1=ハナウタノハレルヤ！（フワフワバージョン）
TTITLE2=しずかの街
TTITLE3=今日の花(off vocal)
TTITLE4=たるとのテーマ
EXTD=YEAR: 2001
EXTT0=
EXTT1=
EXTT2=
EXTT3=
EXTT4=
PLAYORDER=
